<svg viewBox="28 106 243 87" xmlns="http://www.w3.org/2000/svg" role="img" aria-label="DockIt"><g fill="#FFFFFF" transform="matrix(4.137467936354269,0,0,4.137467936354269,96.94239172572884,119.73442180882071)"><path d="M1.11 12.29L1.11 2.69L4.66 2.69Q6.97 2.69 8.22 3.87Q9.46 5.05 9.46 7.49L9.46 7.49Q9.46 9.93 8.22 11.11Q6.97 12.29 4.66 12.29L4.66 12.29L1.11 12.29ZM2.44 11.13L4.66 11.13Q6.33 11.13 7.20 10.29Q8.08 9.45 8.09 7.52L8.09 7.52L8.09 7.49Q8.09 5.54 7.22 4.70Q6.34 3.85 4.66 3.85L4.66 3.85L2.44 3.85L2.44 11.13ZM14 12.46Q12.31 12.46 11.45 11.52Q10.60 10.57 10.60 8.61L10.60 8.61Q10.60 6.65 11.45 5.71Q12.31 4.76 14 4.76L14 4.76Q15.69 4.76 16.55 5.71Q17.40 6.65 17.40 8.61L17.40 8.61Q17.40 10.57 16.55 11.52Q15.69 12.46 14 12.46L14 12.46ZM14 11.44Q15.12 11.44 15.62 10.79Q16.13 10.14 16.13 8.67L16.13 8.67L16.13 8.55Q16.13 7.08 15.62 6.43Q15.12 5.78 14 5.78L14 5.78Q12.88 5.78 12.38 6.43Q11.87 7.08 11.87 8.55L11.87 8.55L11.87 8.67Q11.87 10.14 12.38 10.79Q12.88 11.44 14 11.44L14 11.44ZM21.63 12.46Q19.95 12.46 19.17 11.53Q18.38 10.60 18.38 8.61L18.38 8.61Q18.38 6.64 19.17 5.70Q19.96 4.76 21.63 4.76L21.63 4.76Q23.14 4.76 23.84 5.49Q24.54 6.22 24.54 7.66L24.54 7.66L23.28 7.66Q23.28 6.66 22.93 6.22Q22.57 5.78 21.63 5.78L21.63 5.78Q20.61 5.78 20.13 6.45Q19.66 7.11 19.66 8.61L19.66 8.61L19.66 8.67Q19.66 10.15 20.12 10.79Q20.58 11.44 21.63 11.44L21.63 11.44Q22.55 11.44 22.95 10.97Q23.35 10.50 23.35 9.56L23.35 9.56L24.54 9.56Q24.54 10.82 23.83 11.64Q23.11 12.46 21.63 12.46L21.63 12.46ZM25.83 12.29L25.83 2.17L27.06 2.17L27.06 8.54L30.18 4.93L31.71 4.93L29.18 7.83L31.85 12.29L30.42 12.29L28.41 8.71L27.06 9.98L27.06 12.29L25.83 12.29ZM33.18 12.29L33.18 2.69L34.51 2.69L34.51 12.29L33.18 12.29ZM38.39 12.45Q37.63 12.45 37.28 12.00Q36.93 11.55 36.93 10.89L36.93 10.89L36.93 5.95L36.04 5.95L36.04 4.93L36.95 4.93L37.21 2.88L38.16 2.88L38.16 4.93L39.41 4.93L39.41 5.95L38.16 5.95L38.16 10.78Q38.16 11.44 38.78 11.44L38.78 11.44L39.41 11.44L39.41 12.25Q39.23 12.33 38.93 12.39Q38.64 12.45 38.39 12.45L38.39 12.45Z"></path></g><g fill="#288B58" transform="matrix(0.6386181736088032,0,0,0.6386181736088032,32.336581916694364,118.06909131955985)"><path d="M34.931 49.088 30 49.479V53h4.47c-.078 1-.078 1.6-.078 2.459 0 .938.07 1.854.148 2.792l-4.54.292V62h4.86c1.798 12 8.752 19.252 18.129 19.252 5.704 0 10.002-2.759 13.44-7.291L62.6 70.51c-2.657 3.596-5.392 5.591-9.221 5.591C46.973 76.101 42.831 71 41.503 62H58v-4H41.112c-.078-1-.078-1.836-.078-2.852 0-.781 0-1.148.078-2.148H61v-4H41.425c1.25-9 5.548-14.412 12.424-14.412 3.282 0 5.86 1.897 8.049 4.632l3.829-3.662c-2.735-3.438-6.92-6.089-11.608-6.089-10.237 0-17.39 7.351-19.188 19.619"></path><path d="M88 26 62 0v.002L61.998 0H12v100h76V26.001L87.998 26zm-5 69H17V5h45v21h21z"></path></g></svg>
