<svg viewBox="20 106 88 88" xmlns="http://www.w3.org/2000/svg" role="img" aria-label="DockIt"><g fill="#288B58" transform="matrix(0.6386181736088032,0,0,0.6386181736088032,32.336581916694364,118.06909131955985)"><path d="M34.931 49.088 30 49.479V53h4.47c-.078 1-.078 1.6-.078 2.459 0 .938.07 1.854.148 2.792l-4.54.292V62h4.86c1.798 12 8.752 19.252 18.129 19.252 5.704 0 10.002-2.759 13.44-7.291L62.6 70.51c-2.657 3.596-5.392 5.591-9.221 5.591C46.973 76.101 42.831 71 41.503 62H58v-4H41.112c-.078-1-.078-1.836-.078-2.852 0-.781 0-1.148.078-2.148H61v-4H41.425c1.25-9 5.548-14.412 12.424-14.412 3.282 0 5.86 1.897 8.049 4.632l3.829-3.662c-2.735-3.438-6.92-6.089-11.608-6.089-10.237 0-17.39 7.351-19.188 19.619"></path><path d="M88 26 62 0v.002L61.998 0H12v100h76V26.001L87.998 26zm-5 69H17V5h45v21h21z"></path></g></svg>
